<svg width="40" height="31" viewBox="0 0 40 31" fill="none" xmlns="http://www.w3.org/2000/svg">
<path d="M37.0025 0.190968C33.2628 0.403566 25.8298 1.17739 21.2412 3.99107C20.9245 4.18521 20.745 4.53042 20.745 4.89136V29.7653C20.745 30.5548 21.6069 31.0539 22.3337 30.6875C27.0547 28.3072 33.8824 27.6578 37.2584 27.48C38.411 27.4192 39.307 26.4936 39.307 25.3841V2.2896C39.3077 1.07896 38.2595 0.119874 37.0025 0.190968ZM18.0658 3.99107C13.4779 1.17739 6.04492 0.404249 2.30523 0.190968C1.04821 0.119874 0 1.07896 0 2.2896V25.3848C0 26.495 0.896024 27.4206 2.04864 27.4807C5.42596 27.6585 12.257 28.3085 16.9781 30.6902C17.7028 31.0559 18.562 30.5576 18.562 29.7701V4.87905C18.562 4.51743 18.3832 4.18589 18.0658 3.99107Z" fill="#28A745"/>
</svg>
